<svg width="40" height="40" viewBox="0 0 40 40" fill="none" xmlns="http://www.w3.org/2000/svg">
<rect width="40" height="40" fill="#F5F5F5"/>
<path d="M-668 -215C-668 -216.105 -667.105 -217 -666 -217H378C379.104 -217 380 -216.105 380 -215V1168C380 1169.1 379.105 1170 378 1170H-666C-667.105 1170 -668 1169.1 -668 1168V-215Z" fill="white"/>
<path d="M-666 -216H378V-218H-666V-216ZM379 -215V1168H381V-215H379ZM378 1169H-666V1171H378V1169ZM-667 1168V-215H-669V1168H-667ZM-666 1169C-666.552 1169 -667 1168.55 -667 1168H-669C-669 1169.66 -667.657 1171 -666 1171V1169ZM379 1168C379 1168.55 378.552 1169 378 1169V1171C379.657 1171 381 1169.66 381 1168H379ZM378 -216C378.552 -216 379 -215.552 379 -215H381C381 -216.657 379.657 -218 378 -218V-216ZM-666 -218C-667.657 -218 -669 -216.657 -669 -215H-667C-667 -215.552 -666.552 -216 -666 -216V-218Z" fill="black" fill-opacity="0.1"/>
<rect x="-9.5" y="-9.5" width="227" height="59" rx="4.5" stroke="#9747FF" stroke-dasharray="10 5"/>
<g opacity="0.4">
<path d="M12.4854 28.4854L28.4854 12.4854" stroke="#212121" stroke-width="2" stroke-linecap="round"/>
<path d="M28.4854 28.4854L12.4854 12.4854" stroke="#212121" stroke-width="2" stroke-linecap="round"/>
</g>
</svg>
